<?xml version="1.0" encoding="UTF-8" standalone="no"?>
<svg
   width="40"
   height="40"
   viewBox="0 0 40 40"
   fill="none"
   version="1.1"
   id="svg18"
   sodipodi:docname="Logo (1).svg"
   inkscape:version="1.1.1 (3bf5ae0d25, 2021-09-20)"
   xmlns:inkscape="http://www.inkscape.org/namespaces/inkscape"
   xmlns:sodipodi="http://sodipodi.sourceforge.net/DTD/sodipodi-0.dtd"
   xmlns="http://www.w3.org/2000/svg"
   xmlns:svg="http://www.w3.org/2000/svg">
  <defs
     id="defs22" />
  <sodipodi:namedview
     id="namedview20"
     pagecolor="#505050"
     bordercolor="#eeeeee"
     borderopacity="1"
     inkscape:pageshadow="0"
     inkscape:pageopacity="0"
     inkscape:pagecheckerboard="0"
     showgrid="false"
     inkscape:zoom="4.075"
     inkscape:cx="-43.312883"
     inkscape:cy="40.613497"
     inkscape:window-width="1600"
     inkscape:window-height="837"
     inkscape:window-x="-8"
     inkscape:window-y="-8"
     inkscape:window-maximized="1"
     inkscape:current-layer="svg18" />
  <path
     d="M19.9999 40C31.0456 40 39.9999 31.0457 39.9999 20C39.9999 8.95431 31.0456 0 19.9999 0C8.95424 0 -6.10352e-05 8.95431 -6.10352e-05 20C-6.10352e-05 31.0457 8.95424 40 19.9999 40Z"
     fill="white"
     fill-opacity="0.1"
     id="path2"
     style="fill:#000000;fill-opacity:0.20481928;opacity:1" />
  <path
     d="M18.8424 28.0463C14.9124 27.4707 11.8964 24.0828 11.8964 19.9891C11.8964 15.8954 14.9124 12.5075 18.8424 11.9322V7.69238C12.5855 8.29084 7.69232 13.5677 7.69232 19.9891C7.69232 26.4104 12.5855 31.687 18.8424 32.2858V28.0463Z"
     fill="white"
     id="path4" />
  <path
     d="M26.9983 12L26.8891 12.3711V23.1393L26.9983 23.2483L31.9968 20.2937L26.9983 12Z"
     fill="white"
     id="path6" />
  <path
     d="M26.9984 12L21.9999 20.2937L26.9984 23.2483V18.0217V12Z"
     fill="white"
     id="path8" />
  <path
     d="M26.9986 24.8742L26.937 24.9492V28.7851L26.9986 28.9648L32 21.9211L26.9986 24.8742Z"
     fill="white"
     id="path10" />
  <path
     d="M26.9984 28.9648V24.8742L21.9999 21.9211L26.9984 28.9648Z"
     fill="white"
     id="path12" />
  <path
     d="M26.9984 23.2482L31.9968 20.2937L26.9984 18.0217V23.2482Z"
     fill="white"
     id="path14" />
  <path
     d="M21.9999 20.2937L26.9983 23.2482V18.0217L21.9999 20.2937Z"
     fill="white"
     id="path16" />
</svg>
